# Blender 4.1.1
# www.blender.org
mtllib wip room outer wilds.mtl
o Plane
v -1.649689 0.000000 1.085735
v 1.649689 0.000000 1.085735
v -1.649689 0.000000 -1.085735
v 1.649689 0.000000 -1.085735
vn -0.0000 1.0000 -0.0000
vt 0.000000 0.000000
vt 1.000000 0.000000
vt 1.000000 1.000000
vt 0.000000 1.000000
s 0
f 1/1/1 2/2/1 4/3/1 3/4/1
o Plane.001
v -1.649689 1.732590 1.000000
v 1.649689 1.732590 1.000000
v -1.649689 -0.018599 1.000000
v 1.649689 -0.018599 1.000000
vn -0.0000 -0.0000 -1.0000
vt 0.000000 0.000000
vt 1.000000 0.000000
vt 1.000000 1.000000
vt 0.000000 1.000000
s 0
f 5/5/2 6/6/2 8/7/2 7/8/2
o Plane.002
v 1.649689 1.732590 -1.000000
v -1.649689 1.732590 -1.000000
v 1.649689 -0.018599 -1.000000
v -1.649689 -0.018599 -1.000000
vn -0.0000 -0.0000 1.0000
vt 0.000000 0.000000
vt 1.000000 0.000000
vt 1.000000 1.000000
vt 0.000000 1.000000
s 0
f 9/9/3 10/10/3 12/11/3 11/12/3
o Plane.003
v -1.576477 1.732590 -1.094683
v -1.576477 1.732590 1.094683
v -1.576477 -0.018599 -1.094683
v -1.576477 -0.018599 1.094683
v -1.576477 1.116208 -0.090723
v -1.576477 1.091030 -0.177960
v -1.576477 1.116208 0.090723
v -1.576477 1.050142 0.258358
v -1.576477 1.091030 0.177960
v -1.576477 1.124710 -0.000000
v -1.576477 0.851571 0.429633
v -1.576477 0.928067 0.386660
v -1.576477 0.682249 0.465032
v -1.576477 0.768569 0.456096
v -1.576477 0.595929 0.456096
v -1.576477 0.995116 0.328827
v -1.576477 0.682249 -0.465032
v -1.576477 0.851571 -0.429633
v -1.576477 0.768569 -0.456096
v -1.576477 0.595929 -0.456096
v -1.576477 0.512926 -0.429633
v -1.576477 0.928067 -0.386660
v -1.576477 0.369382 -0.328827
v -1.576477 0.378530 -0.336718
v -1.576477 0.995116 -0.328827
v -1.576477 0.436431 -0.386660
v -1.576477 1.050142 -0.258358
v -1.576477 0.273468 -0.177960
v -1.576477 0.248290 0.090723
v -1.576477 0.239788 -0.000000
v -1.576477 0.248290 -0.090723
v -1.576477 0.314356 0.258358
v -1.576477 0.436431 0.386660
v -1.576477 0.512926 0.429633
v -1.576477 0.369382 0.328827
v -1.576477 0.273468 0.177960
v -1.576477 0.314356 -0.258358
vn 1.0000 -0.0000 -0.0000
vt 0.650193 0.778447
vt 1.000000 1.000000
vt 0.000000 1.000000
vt 0.346203 0.773223
vt 0.349807 0.778447
vt 0.381994 0.809869
vt 0.418716 0.833218
vt 0.458562 0.847596
vt 0.500000 0.852451
vt 0.541438 0.847596
vt 0.581284 0.833218
vt 0.618006 0.809869
vt 0.323392 0.740160
vt 0.000000 0.000000
vt 1.000000 0.000000
vt 0.676608 0.740160
vt 0.696236 0.696477
vt 0.708323 0.649080
vt 0.712405 0.599787
vt 0.708323 0.550495
vt 0.696236 0.503097
vt 0.676608 0.459415
vt 0.650193 0.421128
vt 0.618006 0.389706
vt 0.581284 0.366357
vt 0.541438 0.351979
vt 0.500000 0.347124
vt 0.458562 0.351979
vt 0.418716 0.366357
vt 0.381994 0.389706
vt 0.349807 0.421128
vt 0.323392 0.459415
vt 0.303764 0.503097
vt 0.291677 0.550495
vt 0.287595 0.599787
vt 0.291677 0.649080
vt 0.303764 0.696477
s 0
f 47/13/4 16/14/4 15/15/4 36/16/4 35/17/4 49/18/4 40/19/4 43/20/4 42/21/4 41/22/4 48/23/4 44/24/4
f 38/25/4 36/16/4 15/15/4 13/26/4 14/27/4 16/14/4 47/13/4 45/28/4 46/29/4 27/30/4 25/31/4 26/32/4 23/33/4 24/34/4 28/35/4 20/36/4 21/37/4 19/38/4 22/39/4 17/40/4 18/41/4 39/42/4 37/43/4 34/44/4 30/45/4 31/46/4 29/47/4 32/48/4 33/49/4
o Plane.004
v 1.641966 1.732590 1.032814
v 1.641967 1.732590 -1.032814
v 1.641966 -0.018599 1.032814
v 1.641966 -0.018599 -1.032814
vn -1.0000 -0.0000 -0.0000
vt 0.000000 0.000000
vt 1.000000 0.000000
vt 1.000000 1.000000
vt 0.000000 1.000000
s 0
f 50/50/5 51/51/5 53/52/5 52/53/5
o Plane.005
v -1.649689 1.439553 -1.054315
v 1.649689 1.439553 -1.054315
v -1.649689 1.439553 1.054315
v 1.649689 1.439553 1.054315
vn -0.0000 -1.0000 -0.0000
vt 0.000000 0.000000
vt 1.000000 0.000000
vt 1.000000 1.000000
vt 0.000000 1.000000
s 0
f 54/54/6 55/55/6 57/56/6 56/57/6
o Cylinder
v -2.511468 0.679664 -0.558038
v -1.675601 0.680533 -0.394227
v -1.513975 0.682654 -0.558038
v -2.511157 0.576081 -0.547315
v -1.675377 0.605953 -0.386652
v -1.513665 0.579071 -0.547315
v -2.510859 0.476479 -0.515560
v -1.675162 0.534239 -0.364218
v -1.513366 0.479469 -0.515560
v -2.510583 0.384685 -0.463992
v -1.674964 0.468148 -0.327788
v -1.513091 0.387675 -0.463992
v -2.510342 0.304227 -0.394592
v -1.674791 0.410218 -0.278760
v -1.512850 0.307217 -0.394592
v -2.510144 0.238197 -0.310029
v -1.674648 0.362676 -0.219021
v -1.512652 0.241187 -0.310029
v -2.509997 0.189132 -0.213552
v -1.674542 0.327350 -0.150864
v -1.512505 0.192122 -0.213552
v -2.509907 0.158918 -0.108868
v -1.674477 0.305596 -0.076910
v -1.512414 0.161908 -0.108868
v -2.509876 0.148716 0.000000
v -1.674455 0.298250 0.000000
v -1.512383 0.151706 0.000000
v -2.509907 0.158918 0.108868
v -1.674477 0.305596 0.076910
v -1.512414 0.161908 0.108868
v -1.674542 0.327350 0.150864
v -2.509997 0.189132 0.213552
v -1.512505 0.192122 0.213552
v -2.510144 0.238197 0.310029
v -1.674648 0.362676 0.219021
v -1.512652 0.241187 0.310029
v -2.510342 0.304227 0.394592
v -1.674791 0.410218 0.278760
v -1.512850 0.307217 0.394592
v -2.510583 0.384685 0.463992
v -1.674964 0.468148 0.327788
v -1.513091 0.387675 0.463992
v -2.510859 0.476479 0.515560
v -1.675162 0.534239 0.364218
v -1.513366 0.479469 0.515560
v -1.675377 0.605953 0.386652
v -2.511157 0.576081 0.547315
v -1.513665 0.579071 0.547315
v -2.511468 0.679664 0.558038
v -1.675601 0.680533 0.394227
v -1.513975 0.682654 0.558038
v -2.511778 0.783247 0.547315
v -1.675825 0.755112 0.386652
v -1.514286 0.786237 0.547315
v -2.512077 0.882849 0.515560
v -1.676039 0.826826 0.364218
v -1.514584 0.885839 0.515560
v -2.512352 0.974643 0.463992
v -1.676238 0.892917 0.327788
v -1.514860 0.977633 0.463992
v -2.512594 1.055101 0.394592
v -1.676411 0.950847 0.278760
v -1.515101 1.058091 0.394592
v -2.512791 1.121131 0.310029
v -1.676554 0.998389 0.219021
v -1.515299 1.124121 0.310029
v -2.512938 1.170196 0.213552
v -1.676660 1.033716 0.150864
v -1.515446 1.173186 0.213552
v -2.513029 1.200410 0.108868
v -1.676725 1.055470 0.076910
v -1.515536 1.203400 0.108868
v -2.513060 1.210612 0.000000
v -1.676747 1.062815 0.000000
v -1.515567 1.213602 0.000000
v -2.513029 1.200410 -0.108868
v -1.676725 1.055470 -0.076910
v -1.515536 1.203400 -0.108868
v -2.512938 1.170196 -0.213552
v -1.676660 1.033716 -0.150864
v -1.515446 1.173186 -0.213552
v -2.512791 1.121131 -0.310029
v -1.676554 0.998389 -0.219021
v -1.515299 1.124121 -0.310029
v -2.512594 1.055101 -0.394592
v -1.676411 0.950847 -0.278760
v -1.515101 1.058091 -0.394592
v -2.512352 0.974643 -0.463992
v -1.676238 0.892917 -0.327788
v -1.514860 0.977633 -0.463992
v -2.512077 0.882849 -0.515560
v -1.676039 0.826826 -0.364218
v -1.514584 0.885839 -0.515560
v -2.511778 0.783247 -0.547315
v -1.675825 0.755112 -0.386652
v -1.514286 0.786237 -0.547315
v -1.514409 0.827310 -0.364218
v -1.515029 1.034200 0.150864
v -1.513532 0.534724 0.364218
v -1.512846 0.306080 -0.076910
v -1.512911 0.327834 -0.150864
v -1.515116 1.063300 0.000000
v -1.515094 1.055954 0.076910
v -1.515094 1.055954 -0.076910
v -1.515029 1.034200 -0.150864
v -1.514781 0.951332 -0.278760
v -1.514923 0.998874 0.219021
v -1.514923 0.998874 -0.219021
v -1.514607 0.893402 0.327788
v -1.514409 0.827310 0.364218
v -1.514194 0.755597 -0.386652
v -1.513747 0.606438 -0.386652
v -1.513970 0.681017 -0.394227
v -1.514781 0.951332 0.278760
v -1.514607 0.893402 -0.327788
v -1.514194 0.755597 0.386652
v -1.513747 0.606438 0.386652
v -1.513970 0.681017 0.394227
v -1.513334 0.468632 -0.327788
v -1.513532 0.534724 -0.364218
v -1.513017 0.363161 -0.219021
v -1.513160 0.410703 0.278760
v -1.513160 0.410703 -0.278760
v -1.512911 0.327834 0.150864
v -1.512824 0.298735 0.000000
v -1.512846 0.306080 0.076910
v -1.513017 0.363161 0.219021
v -1.513334 0.468632 0.327788
vn 0.0003 -0.1030 -0.9947
vn 0.0009 -0.3038 -0.9527
vn 0.0015 -0.4898 -0.8718
vn 0.0020 -0.6531 -0.7572
vn 0.0024 -0.7882 -0.6154
vn 0.0027 -0.8913 -0.4533
vn 0.0029 -0.9608 -0.2773
vn 0.0030 -0.9956 -0.0933
vn 0.0030 -0.9956 0.0933
vn 0.0029 -0.9608 0.2773
vn 0.0027 -0.8913 0.4533
vn 0.0024 -0.7882 0.6154
vn 0.0020 -0.6531 0.7572
vn 0.0015 -0.4898 0.8718
vn 0.0009 -0.3038 0.9527
vn 0.0003 -0.1030 0.9947
vn -0.0003 0.1030 0.9947
vn -0.0009 0.3038 0.9527
vn -0.0015 0.4898 0.8718
vn -0.0020 0.6531 0.7572
vn -0.0024 0.7882 0.6154
vn -0.0027 0.8913 0.4533
vn -0.0029 0.9608 0.2773
vn -0.0030 0.9956 0.0933
vn -0.0030 0.9956 -0.0933
vn -0.0029 0.9608 -0.2773
vn -0.0027 0.8913 -0.4533
vn -0.0024 0.7882 -0.6154
vn -0.0020 0.6531 -0.7572
vn -0.0015 0.4898 -0.8718
vn 1.0000 0.0030 -0.0000
vn -0.0009 0.3038 -0.9527
vn -0.0003 0.1030 -0.9947
vn -1.0000 -0.0030 -0.0000
vn -0.0003 0.1010 0.9949
vn -0.0009 0.2986 0.9544
vn -0.0014 0.4827 0.8758
vn -0.0019 0.6460 0.7633
vn -0.0023 0.7825 0.6227
vn -0.0027 0.8878 0.4602
vn -0.0029 0.9594 0.2822
vn -0.0030 0.9955 0.0951
vn -0.0030 0.9955 -0.0951
vn -0.0029 0.9594 -0.2822
vn -0.0027 0.8878 -0.4602
vn -0.0023 0.7825 -0.6227
vn -0.0019 0.6460 -0.7633
vn -0.0014 0.4827 -0.8758
vn -0.0009 0.2986 -0.9544
vn -0.0003 0.1010 -0.9949
vn 0.0003 -0.1010 -0.9949
vn 0.0009 -0.2986 -0.9544
vn 0.0014 -0.4827 -0.8758
vn 0.0019 -0.6460 -0.7633
vn 0.0023 -0.7825 -0.6227
vn 0.0027 -0.8878 -0.4602
vn 0.0029 -0.9594 -0.2822
vn 0.0030 -0.9955 -0.0951
vn 0.0030 -0.9955 0.0951
vn 0.0029 -0.9594 0.2822
vn 0.0027 -0.8878 0.4602
vn 0.0023 -0.7825 0.6227
vn 0.0019 -0.6460 0.7633
vn 0.0014 -0.4827 0.8758
vn 0.0009 -0.2986 0.9544
vn 0.0003 -0.1010 0.9949
vt 1.000000 0.500000
vt 1.000000 1.000000
vt 0.968750 1.000000
vt 0.968750 0.500000
vt 0.937500 1.000000
vt 0.937500 0.500000
vt 0.906250 1.000000
vt 0.906250 0.500000
vt 0.875000 1.000000
vt 0.875000 0.500000
vt 0.843750 1.000000
vt 0.843750 0.500000
vt 0.812500 1.000000
vt 0.812500 0.500000
vt 0.781250 1.000000
vt 0.781250 0.500000
vt 0.750000 1.000000
vt 0.750000 0.500000
vt 0.718750 1.000000
vt 0.718750 0.500000
vt 0.687500 1.000000
vt 0.687500 0.500000
vt 0.656250 1.000000
vt 0.656250 0.500000
vt 0.625000 1.000000
vt 0.625000 0.500000
vt 0.593750 1.000000
vt 0.593750 0.500000
vt 0.562500 1.000000
vt 0.562500 0.500000
vt 0.531250 1.000000
vt 0.531250 0.500000
vt 0.500000 1.000000
vt 0.500000 0.500000
vt 0.468750 1.000000
vt 0.468750 0.500000
vt 0.437500 1.000000
vt 0.437500 0.500000
vt 0.406250 1.000000
vt 0.406250 0.500000
vt 0.375000 1.000000
vt 0.375000 0.500000
vt 0.343750 1.000000
vt 0.343750 0.500000
vt 0.312500 1.000000
vt 0.312500 0.500000
vt 0.281250 1.000000
vt 0.281250 0.500000
vt 0.250000 1.000000
vt 0.250000 0.500000
vt 0.218750 1.000000
vt 0.218750 0.500000
vt 0.187500 1.000000
vt 0.187500 0.500000
vt 0.156250 1.000000
vt 0.156250 0.500000
vt 0.125000 1.000000
vt 0.125000 0.500000
vt 0.093750 1.000000
vt 0.093750 0.500000
vt 0.062500 1.000000
vt 0.062500 0.500000
vt 0.410386 0.314883
vt 0.471731 0.341844
vt 0.449553 0.383337
vt 0.419706 0.419706
vt 0.383337 0.449553
vt 0.341844 0.471731
vt 0.296822 0.485388
vt 0.250000 0.490000
vt 0.203178 0.485388
vt 0.158156 0.471731
vt 0.116663 0.449553
vt 0.080294 0.419706
vt 0.050447 0.383337
vt 0.028269 0.341844
vt 0.014612 0.296822
vt 0.010000 0.250000
vt 0.014612 0.203178
vt 0.028269 0.158156
vt 0.050447 0.116663
vt 0.080294 0.080294
vt 0.116663 0.050447
vt 0.158156 0.028269
vt 0.203178 0.014612
vt 0.250000 0.010000
vt 0.296822 0.014612
vt 0.341844 0.028269
vt 0.383337 0.050447
vt 0.419706 0.080294
vt 0.449553 0.116663
vt 0.471731 0.158156
vt 0.410386 0.185117
vt 0.394418 0.155804
vt 0.372928 0.130111
vt 0.346743 0.109026
vt 0.316868 0.093358
vt 0.284452 0.083709
vt 0.250740 0.080452
vt 0.217028 0.083709
vt 0.184612 0.093358
vt 0.154737 0.109026
vt 0.128552 0.130111
vt 0.107062 0.155804
vt 0.091094 0.185117
vt 0.081260 0.216923
vt 0.077940 0.250000
vt 0.081260 0.283077
vt 0.091094 0.314883
vt 0.107062 0.344196
vt 0.128552 0.369889
vt 0.154737 0.390974
vt 0.184612 0.406642
vt 0.217028 0.416291
vt 0.250740 0.419548
vt 0.284451 0.416291
vt 0.316868 0.406642
vt 0.346742 0.390974
vt 0.372928 0.369889
vt 0.394418 0.344196
vt 0.485388 0.203178
vt 0.490000 0.250000
vt 0.485388 0.296822
vt 0.420220 0.283077
vt 0.423540 0.250000
vt 0.420220 0.216923
vt 0.031250 1.000000
vt 0.031250 0.500000
vt 0.000000 1.000000
vt 0.000000 0.500000
vt 0.703178 0.485388
vt 0.750000 0.490000
vt 0.796822 0.485388
vt 0.841844 0.471731
vt 0.883337 0.449553
vt 0.919706 0.419706
vt 0.949553 0.383337
vt 0.971731 0.341844
vt 0.985388 0.296822
vt 0.990000 0.250000
vt 0.985388 0.203178
vt 0.971731 0.158156
vt 0.949553 0.116663
vt 0.919706 0.080294
vt 0.883337 0.050447
vt 0.841844 0.028269
vt 0.796822 0.014612
vt 0.750000 0.010000
vt 0.703178 0.014612
vt 0.658156 0.028269
vt 0.616663 0.050447
vt 0.580294 0.080294
vt 0.550447 0.116663
vt 0.528269 0.158156
vt 0.514612 0.203178
vt 0.510000 0.250000
vt 0.514612 0.296822
vt 0.528269 0.341844
vt 0.550447 0.383337
vt 0.580294 0.419706
vt 0.616663 0.449553
vt 0.658156 0.471731
vt 1.000000 0.693427
vt 0.968750 0.693427
vt 0.937500 0.693427
vt 0.906250 0.693427
vt 0.875000 0.693427
vt 0.843750 0.693427
vt 0.812500 0.693427
vt 0.781250 0.693427
vt 0.750000 0.693427
vt 0.718750 0.693427
vt 0.687500 0.693427
vt 0.656250 0.693427
vt 0.625000 0.693427
vt 0.593750 0.693427
vt 0.562500 0.693427
vt 0.531250 0.693427
vt 0.500000 0.693427
vt 0.468750 0.693427
vt 0.437500 0.693427
vt 0.406250 0.693427
vt 0.375000 0.693427
vt 0.343750 0.693427
vt 0.312500 0.693427
vt 0.281250 0.693427
vt 0.250000 0.693427
vt 0.218750 0.693427
vt 0.187500 0.693427
vt 0.156250 0.693427
vt 0.125000 0.693427
vt 0.093750 0.693427
vt 0.062500 0.693427
vt 0.031250 0.693427
vt 0.000000 0.693427
s 0
f 58/58/7 60/59/7 63/60/7 61/61/7
f 61/61/8 63/60/8 66/62/8 64/63/8
f 64/63/9 66/62/9 69/64/9 67/65/9
f 67/65/10 69/64/10 72/66/10 70/67/10
f 70/67/11 72/66/11 75/68/11 73/69/11
f 73/69/12 75/68/12 78/70/12 76/71/12
f 76/71/13 78/70/13 81/72/13 79/73/13
f 79/73/14 81/72/14 84/74/14 82/75/14
f 82/75/15 84/74/15 87/76/15 85/77/15
f 85/77/16 87/76/16 90/78/16 89/79/16
f 89/79/17 90/78/17 93/80/17 91/81/17
f 91/81/18 93/80/18 96/82/18 94/83/18
f 94/83/19 96/82/19 99/84/19 97/85/19
f 97/85/20 99/84/20 102/86/20 100/87/20
f 100/87/21 102/86/21 105/88/21 104/89/21
f 104/89/22 105/88/22 108/90/22 106/91/22
f 106/91/23 108/90/23 111/92/23 109/93/23
f 109/93/24 111/92/24 114/94/24 112/95/24
f 112/95/25 114/94/25 117/96/25 115/97/25
f 115/97/26 117/96/26 120/98/26 118/99/26
f 118/99/27 120/98/27 123/100/27 121/101/27
f 121/101/28 123/100/28 126/102/28 124/103/28
f 124/103/29 126/102/29 129/104/29 127/105/29
f 127/105/30 129/104/30 132/106/30 130/107/30
f 130/107/31 132/106/31 135/108/31 133/109/31
f 133/109/32 135/108/32 138/110/32 136/111/32
f 136/111/33 138/110/33 141/112/33 139/113/33
f 139/113/34 141/112/34 144/114/34 142/115/34
f 142/115/35 144/114/35 147/116/35 145/117/35
f 145/117/36 147/116/36 150/118/36 148/119/36
f 158/120/37 78/121/37 75/122/37 72/123/37 69/124/37 66/125/37 63/126/37 60/127/37 153/128/37 150/129/37 147/130/37 144/131/37 141/132/37 138/133/37 135/134/37 132/135/37 129/136/37 126/137/37 123/138/37 120/139/37 117/140/37 114/141/37 111/142/37 108/143/37 105/144/37 102/145/37 99/146/37 96/147/37 93/148/37 90/149/37 181/150/37 184/151/37 179/152/37 185/153/37 156/154/37 174/155/37 175/156/37 173/157/37 167/158/37 166/159/37 171/160/37 164/161/37 155/162/37 160/163/37 159/164/37 161/165/37 162/166/37 165/167/37 163/168/37 172/169/37 154/170/37 168/171/37 170/172/37 169/173/37 177/174/37 176/175/37 180/176/37 178/177/37
f 181/150/37 90/149/37 87/178/37 84/179/37 81/180/37 78/121/37 158/120/37 157/181/37 182/182/37 183/183/37
f 148/119/38 150/118/38 153/184/38 151/185/38
f 151/185/39 153/184/39 60/186/39 58/187/39
f 151/188/40 58/189/40 61/190/40 64/191/40 67/192/40 70/193/40 73/194/40 76/195/40 79/196/40 82/197/40 85/198/40 89/199/40 91/200/40 94/201/40 97/202/40 100/203/40 104/204/40 106/205/40 109/206/40 112/207/40 115/208/40 118/209/40 121/210/40 124/211/40 127/212/40 130/213/40 133/214/40 136/215/40 139/216/40 142/217/40 145/218/40 148/219/40
f 170/220/41 59/58/41 62/61/41 169/221/41
f 169/221/42 62/61/42 65/63/42 177/222/42
f 177/222/43 65/63/43 68/65/43 176/223/43
f 176/223/44 68/65/44 71/67/44 180/224/44
f 71/67/45 74/69/45 178/225/45 180/224/45
f 74/69/46 77/71/46 158/226/46 178/225/46
f 77/71/47 80/73/47 157/227/47 158/226/47
f 80/73/48 83/75/48 182/228/48 157/227/48
f 83/75/49 86/77/49 183/229/49 182/228/49
f 86/77/50 88/79/50 181/230/50 183/229/50
f 88/79/51 92/81/51 184/231/51 181/230/51
f 92/81/52 95/83/52 179/232/52 184/231/52
f 95/83/53 98/85/53 185/233/53 179/232/53
f 98/85/54 101/87/54 156/234/54 185/233/54
f 101/87/55 103/89/55 174/235/55 156/234/55
f 103/89/56 107/91/56 175/236/56 174/235/56
f 107/91/57 110/93/57 173/237/57 175/236/57
f 110/93/58 113/95/58 167/238/58 173/237/58
f 113/95/59 116/97/59 166/239/59 167/238/59
f 116/97/60 119/99/60 171/240/60 166/239/60
f 171/240/61 119/99/61 122/101/61 164/241/61
f 164/241/62 122/101/62 125/103/62 155/242/62
f 155/242/63 125/103/63 128/105/63 160/243/63
f 160/243/64 128/105/64 131/107/64 159/244/64
f 159/244/65 131/107/65 134/109/65 161/245/65
f 161/245/66 134/109/66 137/111/66 162/246/66
f 162/246/67 137/111/67 140/113/67 165/247/67
f 165/247/68 140/113/68 143/115/68 163/248/68
f 163/248/69 143/115/69 146/117/69 172/249/69
f 172/249/70 146/117/70 149/119/70 154/250/70
f 154/250/71 149/119/71 152/185/71 168/251/71
f 168/251/72 152/185/72 59/187/72 170/252/72
f 128/212/37 125/211/37 122/210/37 119/209/37 116/208/37 113/207/37 110/206/37 107/205/37 103/204/37 101/203/37 98/202/37 95/201/37 92/200/37 88/199/37 86/198/37 83/197/37 80/196/37 77/195/37 74/194/37 71/193/37 68/192/37 65/191/37 62/190/37 59/189/37 152/188/37 149/219/37 146/218/37 143/217/37 140/216/37 137/215/37 134/214/37 131/213/37
o Cube
v -0.036162 0.241338 1.276427
v -0.036162 1.291544 1.276427
v -0.036162 0.241338 0.876427
v -0.036162 1.291544 0.876427
v 1.269704 0.241338 1.276427
v 1.269704 1.291544 1.276427
v 1.269704 0.241338 0.876427
v 1.269704 1.291544 0.876427
vn -1.0000 -0.0000 -0.0000
vn -0.0000 -0.0000 -1.0000
vn 1.0000 -0.0000 -0.0000
vn -0.0000 -0.0000 1.0000
vn -0.0000 -1.0000 -0.0000
vn -0.0000 1.0000 -0.0000
vt 0.375000 0.000000
vt 0.625000 0.000000
vt 0.625000 0.250000
vt 0.375000 0.250000
vt 0.625000 0.500000
vt 0.375000 0.500000
vt 0.625000 0.750000
vt 0.375000 0.750000
vt 0.625000 1.000000
vt 0.375000 1.000000
vt 0.125000 0.500000
vt 0.125000 0.750000
vt 0.875000 0.500000
vt 0.875000 0.750000
s 0
f 186/253/73 187/254/73 189/255/73 188/256/73
f 188/256/74 189/255/74 193/257/74 192/258/74
f 192/258/75 193/257/75 191/259/75 190/260/75
f 190/260/76 191/259/76 187/261/76 186/262/76
f 188/263/77 192/258/77 190/260/77 186/264/77
f 193/257/78 189/265/78 187/266/78 191/259/78
o Cube.001
v -0.772361 0.388974 1.276427
v -0.772361 1.285901 1.276427
v -0.772361 0.388974 0.876427
v -0.772361 1.285901 0.876427
v -0.119245 0.388974 1.276427
v -0.119245 1.285901 1.276427
v -0.119245 0.388974 0.876427
v -0.119245 1.285901 0.876427
vn -1.0000 -0.0000 -0.0000
vn -0.0000 -0.0000 -1.0000
vn 1.0000 -0.0000 -0.0000
vn -0.0000 -0.0000 1.0000
vn -0.0000 -1.0000 -0.0000
vn -0.0000 1.0000 -0.0000
vt 0.375000 0.000000
vt 0.625000 0.000000
vt 0.625000 0.250000
vt 0.375000 0.250000
vt 0.625000 0.500000
vt 0.375000 0.500000
vt 0.625000 0.750000
vt 0.375000 0.750000
vt 0.625000 1.000000
vt 0.375000 1.000000
vt 0.125000 0.500000
vt 0.125000 0.750000
vt 0.875000 0.500000
vt 0.875000 0.750000
s 0
f 194/267/79 195/268/79 197/269/79 196/270/79
f 196/270/80 197/269/80 201/271/80 200/272/80
f 200/272/81 201/271/81 199/273/81 198/274/81
f 198/274/82 199/273/82 195/275/82 194/276/82
f 196/277/83 200/272/83 198/274/83 194/278/83
f 201/271/84 197/279/84 195/280/84 199/273/84
o Cube.002
v -0.772361 0.248080 1.276427
v -0.772361 0.362228 1.276427
v -0.772361 0.248080 0.876427
v -0.772361 0.362228 0.876427
v -0.119245 0.248080 1.276427
v -0.119245 0.362228 1.276427
v -0.119245 0.248080 0.876427
v -0.119245 0.362228 0.876427
vn -1.0000 -0.0000 -0.0000
vn -0.0000 -0.0000 -1.0000
vn 1.0000 -0.0000 -0.0000
vn -0.0000 -0.0000 1.0000
vn -0.0000 -1.0000 -0.0000
vn -0.0000 1.0000 -0.0000
vt 0.375000 0.000000
vt 0.625000 0.000000
vt 0.625000 0.250000
vt 0.375000 0.250000
vt 0.625000 0.500000
vt 0.375000 0.500000
vt 0.625000 0.750000
vt 0.375000 0.750000
vt 0.625000 1.000000
vt 0.375000 1.000000
vt 0.125000 0.500000
vt 0.125000 0.750000
vt 0.875000 0.500000
vt 0.875000 0.750000
s 0
f 202/281/85 203/282/85 205/283/85 204/284/85
f 204/284/86 205/283/86 209/285/86 208/286/86
f 208/286/87 209/285/87 207/287/87 206/288/87
f 206/288/88 207/287/88 203/289/88 202/290/88
f 204/291/89 208/286/89 206/288/89 202/292/89
f 209/285/90 205/293/90 203/294/90 207/287/90
